<svg width="512" height="640" viewBox="0 0 512 640" fill="none" xmlns="http://www.w3.org/2000/svg">
  <defs>
    <clipPath id="faceClip">
      <path d="M254 18C376 18 473 105 473 226C473 305 431 375 369 420C361 426 357 436 358 447L361 478C362 488 358 497 350 503C342 509 331 511 321 508L297 499C281 494 263 501 255 516L235 553C229 565 217 573 204 573C191 573 179 566 173 554L153 517C145 502 128 495 112 500L85 509C75 512 64 510 56 504C48 497 44 487 45 477L49 446C50 436 46 426 39 420C-22 368 -59 300 -59 226C-59 105 38 18 160 18H254Z"/>
    </clipPath>
    <linearGradient id="blobBase" x1="96" y1="52" x2="408" y2="602" gradientUnits="userSpaceOnUse">
      <stop stop-color="#68E7EA"/>
      <stop offset="1" stop-color="#1ADDE2"/>
    </linearGradient>
  </defs>

  <g clip-path="url(#faceClip)">
    <rect x="-59" y="18" width="532" height="555" fill="url(#blobBase)"/>
    <path d="M-47 206C62 109 145 55 236 29C282 16 331 25 369 55L431 104L17 488L-47 402V206Z" fill="#1AD8DF"/>
    <path d="M32 428C86 346 136 290 198 227C221 204 261 206 282 229C303 252 304 291 282 314L131 484L56 483L32 428Z" fill="#66DCE2"/>
    <path d="M271 27C327 10 380 22 415 67C449 111 455 171 435 219C420 255 390 271 354 266C315 261 293 229 302 192C312 156 286 121 247 114C208 107 192 51 271 27Z" fill="#66DCE2"/>
    <path d="M344 388C394 364 439 359 486 366V475C428 473 376 491 329 535C283 578 258 625 253 681H177C180 611 225 442 344 388Z" fill="#66DCE2"/>
    <path d="M86 14C124 -10 181 -6 198 24C213 52 189 82 146 86C104 89 70 72 70 45C70 32 76 21 86 14Z" fill="#1AD8DF"/>
  </g>

  <ellipse cx="166" cy="214" rx="32" ry="88" fill="#030303"/>
  <ellipse cx="325" cy="214" rx="32" ry="88" fill="#030303"/>
  <path d="M80 330C113 442 183 497 268 497C352 497 417 444 445 329" stroke="#030303" stroke-width="16" stroke-linecap="round"/>
  <path d="M57 332L86 324" stroke="#030303" stroke-width="16" stroke-linecap="round"/>
  <path d="M444 331L415 324" stroke="#030303" stroke-width="16" stroke-linecap="round"/>
  <path d="M424 88C432 71 445 71 453 88C460 102 474 109 487 109C474 110 460 118 453 132C445 149 432 149 424 132C417 118 403 111 390 109C403 107 417 102 424 88Z" fill="#F3F3F3"/>
  <path d="M57 499C65 482 78 482 86 499C93 513 107 520 120 520C107 522 93 529 86 543C78 560 65 560 57 543C50 529 36 522 23 520C36 519 50 513 57 499Z" fill="#F3F3F3"/>
</svg>
